<?xml version="1.0" standalone="no"?>
<!DOCTYPE svg PUBLIC "-//W3C//DTD SVG 20010904//EN"
 "http://www.w3.org/TR/2001/REC-SVG-20010904/DTD/svg10.dtd">
<svg version="1.0" xmlns="http://www.w3.org/2000/svg"
 width="1176.000000pt" height="796.000000pt" viewBox="0 0 1176.000000 796.000000"
 preserveAspectRatio="xMidYMid meet">

<g transform="translate(0.000000,796.000000) scale(0.100000,-0.100000)"
fill="#000000" stroke="none">
<path d="M5043 6450 c-58 -24 -69 -116 -18 -153 20 -15 25 -27 25 -62 0 -30 5
-45 16 -49 9 -3 74 -6 145 -6 l129 0 0 -70 0 -70 -174 0 -174 0 -30 30 c-42
42 -91 41 -126 -1 -15 -17 -26 -43 -26 -59 0 -16 11 -42 26 -59 35 -42 84 -43
126 -1 l30 30 174 0 174 0 0 -35 c0 -33 -3 -36 -70 -70 l-70 -35 0 -74 c0 -50
4 -77 14 -85 23 -19 46 -1 52 40 4 21 8 39 9 39 5 0 139 -61 143 -64 1 -2 -9
-37 -23 -79 -74 -221 23 -450 233 -550 35 -16 83 -32 108 -35 l44 -5 0 -78 c0
-44 -2 -79 -4 -79 -2 0 -62 28 -132 61 -71 34 -184 88 -251 120 l-123 58 0
233 c0 247 -5 274 -46 266 -16 -3 -20 -13 -22 -61 l-3 -57 -105 0 c-101 0
-106 1 -128 26 -32 38 -100 38 -133 0 -41 -48 -27 -117 29 -141 38 -15 85 -5
110 25 14 18 28 20 122 20 l106 0 0 -176 0 -176 70 -31 c68 -31 70 -33 70 -69
l0 -38 -173 0 -173 0 -29 30 c-60 63 -155 23 -155 -65 0 -16 12 -38 29 -56 40
-39 82 -39 123 1 l30 30 174 0 174 0 0 -70 0 -70 -129 0 c-71 0 -136 -3 -145
-6 -11 -4 -16 -19 -16 -46 0 -32 -6 -46 -30 -68 -37 -34 -40 -84 -9 -124 17
-22 28 -26 69 -26 41 0 52 4 69 26 33 42 24 101 -21 132 -10 7 -18 20 -18 28
0 11 23 14 129 14 71 0 136 3 145 6 14 5 16 28 16 155 0 82 3 149 6 149 3 0
67 -30 142 -66 75 -36 158 -75 185 -87 l47 -22 0 -82 c0 -68 -3 -84 -18 -95
-45 -31 -54 -90 -21 -132 17 -22 28 -26 69 -26 41 0 52 4 69 26 31 40 28 90
-9 124 -28 26 -30 32 -30 104 l0 76 105 52 c106 53 123 71 91 97 -12 10 -32 4
-101 -28 -47 -23 -88 -41 -91 -41 -2 0 -4 34 -4 75 0 52 4 77 13 79 6 2 35 9
62 15 125 30 232 117 291 237 33 66 38 84 42 172 3 82 1 106 -17 157 -12 33
-24 67 -26 75 -4 11 18 26 75 52 l80 37 0 -328 0 -327 -131 -64 c-72 -35 -134
-70 -136 -78 -3 -7 2 -21 11 -30 15 -15 19 -14 61 6 25 12 48 22 50 22 3 0 5
-64 5 -143 0 -98 4 -147 12 -155 8 -8 55 -12 145 -12 144 0 156 -5 109 -50
-33 -30 -41 -71 -22 -108 18 -34 33 -42 85 -42 51 0 81 32 81 87 0 32 -6 46
-25 61 -19 15 -25 29 -25 59 0 21 -5 44 -12 51 -8 8 -56 12 -150 12 l-138 0 0
70 0 70 176 0 176 0 28 -30 c32 -35 72 -39 110 -13 35 24 40 33 40 76 0 83
-91 117 -152 57 l-30 -30 -172 2 -171 3 0 35 c0 33 3 36 68 67 l67 33 0 175 0
175 107 0 c101 0 108 -1 134 -26 56 -54 141 -22 147 56 4 46 -14 75 -57 91
-31 12 -88 -6 -101 -32 -10 -17 -22 -19 -120 -19 l-110 0 -2 177 -3 177 -67
33 c-65 31 -68 34 -68 68 l0 35 174 0 174 0 30 -30 c61 -61 152 -24 152 60 0
84 -91 121 -152 60 l-30 -30 -174 0 -174 0 0 70 0 70 134 0 c151 0 166 6 166
65 0 23 8 42 25 59 69 69 -7 183 -97 145 -60 -25 -73 -108 -22 -148 13 -10 24
-26 24 -35 0 -14 -18 -16 -133 -16 -90 0 -137 -4 -145 -12 -8 -8 -12 -57 -12
-155 0 -79 -2 -143 -3 -143 -2 0 -36 16 -76 35 -80 39 -93 42 -111 19 -11 -12
-11 -18 1 -29 13 -13 198 -108 247 -126 12 -5 22 -12 22 -17 0 -4 -31 -23 -69
-41 l-68 -34 -44 42 c-57 56 -117 90 -198 113 -80 22 -135 23 -214 2 -83 -21
-125 -44 -191 -105 l-57 -52 -70 33 c-38 19 -69 37 -69 40 0 4 46 28 103 55
56 27 166 79 244 116 l142 68 69 -31 c76 -33 105 -32 100 4 -2 17 -21 31 -70
55 l-68 33 0 76 c0 71 2 77 30 106 38 38 40 85 6 125 -34 39 -98 39 -132 0
-33 -38 -31 -79 6 -120 28 -32 30 -40 30 -116 0 -44 -4 -81 -9 -81 -5 0 -89
-38 -186 -85 -98 -47 -179 -85 -181 -85 -2 0 -5 69 -6 153 l-3 152 -142 3
c-95 2 -143 6 -143 13 0 6 14 27 30 46 19 21 30 45 30 63 0 58 -72 103 -127
80z m60 -74 c3 -8 -1 -20 -9 -27 -12 -10 -18 -9 -31 3 -8 9 -12 21 -9 27 10
16 43 14 49 -3z m733 3 c3 -6 0 -18 -9 -26 -18 -18 -37 -9 -37 18 0 21 34 27
46 8z m732 -10 c4 -19 -27 -34 -41 -20 -14 14 0 43 20 39 10 -2 19 -10 21 -19z
m-1643 -359 c0 -19 -35 -26 -46 -9 -4 7 -5 17 -2 22 8 14 48 3 48 -13z m1825
7 c0 -19 -20 -36 -36 -30 -8 3 -14 14 -14 24 0 14 7 19 25 19 14 0 25 -6 25
-13z m-778 -201 c71 -35 151 -118 185 -193 36 -81 38 -201 5 -289 -78 -206
-320 -301 -518 -202 -268 133 -276 530 -13 673 72 39 100 45 199 41 68 -2 96
-8 142 -30z m-1049 -350 c6 -15 -11 -36 -29 -36 -14 0 -23 20 -16 38 6 16 39
15 45 -2z m1825 -9 c4 -20 -25 -34 -40 -19 -15 15 -1 44 19 40 10 -2 19 -11
21 -21z m-1828 -542 c15 -17 5 -35 -20 -35 -22 0 -33 23 -17 39 15 15 22 14
37 -4z m1828 -14 c-2 -9 -13 -17 -26 -19 -16 -3 -22 2 -22 16 0 11 6 22 13 25
20 7 38 -4 35 -22z m-1651 -342 c15 -15 5 -39 -17 -39 -22 0 -32 24 -17 39 6
6 14 11 17 11 3 0 11 -5 17 -11z m730 0 c16 -16 5 -39 -18 -39 -12 0 -19 7
-19 18 0 31 17 41 37 21z m741 -12 c4 -20 -25 -34 -40 -19 -15 15 -1 44 19 40
10 -2 19 -11 21 -21z"/>
<path d="M5737 5759 c-43 -23 -76 -82 -77 -137 0 -27 -5 -35 -29 -43 -43 -15
-51 -46 -51 -188 0 -115 2 -131 21 -155 l20 -26 189 0 189 0 20 26 c19 24 21
40 21 163 0 147 -8 177 -53 183 -19 3 -23 11 -28 56 -4 29 -14 64 -23 78 -41
62 -127 81 -199 43z m148 -90 c8 -15 15 -39 15 -54 0 -25 -1 -25 -85 -25 l-85
0 0 38 c0 87 116 118 155 41z m-117 -165 c-56 -30 -63 -86 -18 -137 17 -19 30
-43 30 -54 0 -10 6 -25 12 -31 10 -10 -2 -12 -62 -10 l-75 3 -3 123 -3 122 73
0 c70 -1 72 -1 46 -16z m202 -109 l0 -125 -77 0 c-60 0 -74 3 -65 12 7 7 12
21 12 31 0 10 14 32 30 47 48 45 35 126 -24 150 -15 6 0 9 52 9 l72 1 0 -125z
m-137 42 c8 -20 -9 -41 -27 -34 -23 9 -21 47 3 47 10 0 21 -6 24 -13z"/>
<path d="M7355 5365 c-21 -20 -24 -29 -15 -45 6 -11 19 -24 30 -30 16 -9 25
-6 45 15 21 20 24 29 15 45 -6 11 -19 24 -30 30 -16 9 -25 6 -45 -15z"/>
<path d="M7575 5365 c-21 -20 -24 -29 -15 -45 6 -11 19 -24 30 -30 16 -9 25
-6 45 15 21 20 24 29 15 45 -6 11 -19 24 -30 30 -16 9 -25 6 -45 -15z"/>
<path d="M7795 5365 c-21 -20 -24 -29 -15 -45 6 -11 19 -24 30 -30 16 -9 25
-6 45 15 21 20 24 29 15 45 -6 11 -19 24 -30 30 -16 9 -25 6 -45 -15z"/>
<path d="M8015 5365 c-21 -20 -24 -29 -15 -45 6 -11 19 -24 30 -30 16 -9 25
-6 45 15 21 20 24 29 15 45 -6 11 -19 24 -30 30 -16 9 -25 6 -45 -15z"/>
<path d="M8235 5365 c-21 -20 -24 -29 -15 -45 6 -11 19 -24 30 -30 16 -9 25
-6 45 15 21 20 24 29 15 45 -6 11 -19 24 -30 30 -16 9 -25 6 -45 -15z"/>
<path d="M8455 5365 c-21 -20 -24 -29 -15 -45 6 -11 19 -24 30 -30 16 -9 25
-6 45 15 21 20 24 29 15 45 -6 11 -19 24 -30 30 -16 9 -25 6 -45 -15z"/>
<path d="M8675 5365 c-21 -20 -24 -29 -15 -45 6 -11 19 -24 30 -30 16 -9 25
-6 45 15 21 20 24 29 15 45 -6 11 -19 24 -30 30 -16 9 -25 6 -45 -15z"/>
<path d="M8895 5365 c-21 -20 -24 -29 -15 -45 6 -11 19 -24 30 -30 16 -9 25
-6 45 15 21 20 24 29 15 45 -6 11 -19 24 -30 30 -16 9 -25 6 -45 -15z"/>
<path d="M9115 5365 c-21 -20 -24 -29 -15 -45 6 -11 19 -24 30 -30 16 -9 25
-6 45 15 21 20 24 29 15 45 -6 11 -19 24 -30 30 -16 9 -25 6 -45 -15z"/>
<path d="M9335 5365 c-21 -20 -24 -29 -15 -45 6 -11 19 -24 30 -30 16 -9 25
-6 45 15 21 20 24 29 15 45 -6 11 -19 24 -30 30 -16 9 -25 6 -45 -15z"/>
<path d="M9444 5089 c-17 -19 -17 -23 -3 -47 26 -48 89 -33 89 22 0 47 -52 62
-86 25z"/>
<path d="M9444 4869 c-17 -19 -17 -23 -3 -47 26 -48 89 -33 89 22 0 47 -52 62
-86 25z"/>
<path d="M9444 4649 c-17 -19 -17 -23 -3 -47 26 -48 89 -33 89 22 0 47 -52 62
-86 25z"/>
<path d="M9450 4440 c-8 -5 -43 -10 -78 -10 -132 0 -133 -28 -9 -192 124 -166
117 -166 241 0 53 71 96 136 96 144 0 33 -34 48 -108 48 -39 0 -74 5 -77 10
-8 13 -45 13 -65 0z"/>
<path d="M8900 3635 l0 -115 30 0 c28 0 29 1 32 57 2 46 7 59 21 61 15 3 17
-5 17 -57 l0 -61 30 0 30 0 0 68 c0 82 -19 109 -70 99 -29 -6 -30 -5 -30 28 0
32 -2 35 -30 35 l-30 0 0 -115z"/>
<path d="M977 3733 c-4 -3 -7 -55 -7 -115 l0 -108 30 0 c29 0 30 1 30 48 0 55
11 77 34 69 12 -5 16 -20 16 -62 0 -54 0 -55 30 -55 l30 0 0 65 c0 52 -4 69
-20 85 -22 22 -60 26 -78 8 -9 -9 -12 -3 -12 30 0 37 -3 42 -23 42 -13 0 -27
-3 -30 -7z"/>
<path d="M2690 3625 l0 -115 30 0 c25 0 30 4 30 25 0 14 4 25 9 25 5 0 16 -11
25 -25 11 -17 26 -25 46 -25 36 0 37 5 5 53 -27 39 -25 58 9 87 24 19 19 30
-13 30 -21 0 -37 -9 -55 -32 l-26 -33 0 63 0 62 -30 0 -30 0 0 -115z"/>
<path d="M3580 3626 l0 -116 30 0 c25 0 30 4 30 25 0 14 5 25 10 25 6 0 16
-11 22 -25 9 -19 19 -25 45 -25 18 0 33 2 33 6 0 3 -11 22 -25 42 -31 45 -31
47 2 86 l26 31 -29 3 c-23 3 -35 -3 -59 -31 l-30 -35 0 62 c0 59 -1 61 -27 64
l-28 3 0 -115z"/>
<path d="M9822 3695 c-6 -14 -16 -25 -22 -25 -5 0 -10 -7 -10 -15 0 -8 5 -15
10 -15 6 0 10 -19 10 -43 0 -60 16 -79 65 -75 33 2 41 7 43 27 3 20 0 23 -16
19 -22 -6 -32 8 -32 47 0 17 6 25 23 27 14 2 22 10 22 23 0 13 -8 21 -22 23
-13 2 -23 10 -23 18 0 24 -36 16 -48 -11z"/>
<path d="M1892 3680 c-24 -31 -28 -50 -12 -50 6 0 10 -22 10 -48 0 -58 12 -72
62 -72 34 0 38 3 38 25 0 19 -5 25 -17 23 -14 -2 -19 5 -21 35 -3 32 0 37 17
37 16 0 21 6 21 25 0 18 -5 25 -20 25 -11 0 -20 7 -20 15 0 25 -35 17 -58 -15z"/>
<path d="M8550 3684 c0 -3 10 -22 22 -43 l22 -39 -27 -41 -27 -41 34 0 c24 0
38 7 48 22 l15 22 12 -22 c9 -16 21 -22 46 -22 l35 0 -25 40 c-30 47 -30 48
-5 80 28 35 25 50 -9 50 -18 0 -34 -8 -43 -22 l-15 -22 -12 22 c-8 15 -21 22
-41 22 -17 0 -30 -2 -30 -6z"/>
<path d="M9115 3665 c-34 -33 -34 -93 -1 -124 19 -18 33 -22 72 -19 42 3 49 6
52 25 3 20 0 22 -27 17 -17 -4 -38 -3 -48 2 -13 6 -4 9 32 13 47 6 50 8 53 37
6 65 -85 98 -133 49z m70 -25 c3 -6 -4 -10 -17 -10 -18 0 -20 2 -8 10 19 12
18 12 25 0z"/>
<path d="M9313 3678 c-49 -24 -54 -114 -7 -145 24 -15 94 -20 114 -8 5 3 10
15 10 26 0 17 -5 19 -34 13 -19 -3 -41 -2 -48 3 -8 5 5 10 37 13 l50 5 -3 35
c-4 59 -60 86 -119 58z m62 -38 c3 -5 -3 -10 -15 -10 -12 0 -18 5 -15 10 3 6
10 10 15 10 5 0 12 -4 15 -10z"/>
<path d="M9467 3683 c-4 -3 -7 -57 -7 -120 l0 -113 35 0 c33 0 35 2 35 35 0
33 2 35 35 35 28 0 37 5 50 30 22 42 19 85 -9 117 -22 26 -27 27 -55 16 -18
-6 -33 -7 -37 -2 -6 10 -38 12 -47 2z m98 -62 c7 -24 -4 -51 -21 -51 -9 0 -14
12 -14 35 0 38 24 50 35 16z"/>
<path d="M9940 3605 l0 -85 29 0 c29 0 30 2 33 53 3 48 5 52 31 55 23 3 27 8
27 33 0 22 -5 29 -19 29 -10 0 -24 -7 -32 -16 -11 -14 -13 -14 -21 0 -5 9 -18
16 -28 16 -18 0 -20 -7 -20 -85z"/>
<path d="M10080 3605 l0 -85 30 0 c29 0 30 2 30 44 0 54 8 76 26 76 10 0 14
-15 14 -60 l0 -60 35 0 c35 0 35 0 35 44 0 105 -29 142 -91 119 -17 -7 -31 -7
-35 -2 -3 5 -14 9 -25 9 -17 0 -19 -8 -19 -85z"/>
<path d="M10302 3674 c-23 -16 -31 -67 -12 -79 8 -5 7 -11 0 -20 -7 -8 -9 -19
-5 -24 3 -6 -2 -22 -11 -36 -16 -24 -16 -27 1 -45 13 -15 31 -20 65 -20 114 0
140 108 27 111 -42 1 -42 1 -10 9 44 10 63 27 63 56 0 13 5 24 10 24 6 0 10 9
10 20 0 18 -7 20 -58 20 -36 0 -66 -6 -80 -16z m58 -44 c0 -11 -4 -20 -9 -20
-14 0 -23 18 -16 30 10 17 25 11 25 -10z m20 -130 c0 -5 -13 -10 -30 -10 -16
0 -30 5 -30 10 0 6 14 10 30 10 17 0 30 -4 30 -10z"/>
<path d="M630 3670 c0 -5 9 -24 20 -42 l19 -32 -25 -43 -25 -43 35 0 c26 0 36
5 41 20 3 11 10 20 15 20 5 0 12 -9 15 -20 5 -15 15 -20 41 -20 19 0 34 2 34
6 0 3 -11 21 -25 41 -13 20 -21 41 -18 47 3 6 15 23 25 38 24 35 23 38 -12 38
-19 0 -34 -7 -42 -20 -7 -11 -16 -20 -20 -20 -4 0 -10 9 -13 20 -4 14 -15 20
-36 20 -16 0 -29 -4 -29 -10z"/>
<path d="M1196 3659 c-21 -17 -26 -29 -26 -65 0 -64 25 -86 93 -82 44 3 52 6
55 24 3 18 -2 21 -39 20 -25 -1 -44 4 -46 12 -3 8 10 12 46 12 48 0 51 2 51
25 0 35 -42 75 -78 75 -16 0 -41 -9 -56 -21z m72 -37 c2 -7 -6 -12 -17 -12
-21 0 -27 11 -14 24 9 9 26 2 31 -12z"/>
<path d="M1380 3662 c-32 -26 -38 -90 -10 -125 20 -25 28 -28 74 -25 43 3 51
6 54 24 3 18 -2 21 -37 20 -57 -1 -56 18 2 22 44 3 47 5 47 30 0 33 -8 45 -37
61 -31 16 -67 14 -93 -7z m78 -40 c2 -7 -6 -12 -17 -12 -21 0 -27 11 -14 24 9
9 26 2 31 -12z"/>
<path d="M1540 3560 l0 -120 30 0 c28 0 30 2 30 38 0 37 1 38 34 34 43 -5 66
25 66 85 0 65 -52 106 -89 71 -11 -10 -14 -10 -18 0 -3 6 -16 12 -29 12 l-24
0 0 -120z m100 34 c0 -28 -3 -35 -17 -32 -31 6 -29 68 2 68 11 0 15 -10 15
-36z"/>
<path d="M2020 3595 l0 -85 29 0 c29 0 30 2 33 52 2 44 7 53 23 57 23 4 35 19
35 44 0 22 -33 23 -51 1 -11 -14 -13 -14 -21 0 -5 9 -18 16 -28 16 -18 0 -20
-7 -20 -85z"/>
<path d="M2160 3595 l0 -85 30 0 c28 0 29 1 32 57 2 46 7 59 21 61 15 3 17 -5
17 -57 l0 -61 30 0 30 0 0 68 c0 54 -4 72 -18 85 -21 19 -45 21 -72 7 -13 -7
-21 -7 -25 0 -3 5 -15 10 -26 10 -17 0 -19 -8 -19 -85z"/>
<path d="M2382 3673 c-24 -10 -34 -53 -17 -79 10 -16 11 -25 4 -30 -6 -3 -9
-15 -6 -25 3 -10 -1 -23 -9 -30 -37 -30 -1 -69 64 -69 59 0 92 21 92 59 0 37
-17 51 -64 52 l-41 1 38 10 c27 7 42 18 49 37 6 14 14 34 19 44 6 10 7 22 4
27 -6 10 -110 12 -133 3z m58 -53 c0 -11 -7 -20 -15 -20 -8 0 -15 9 -15 20 0
11 7 20 15 20 8 0 15 -9 15 -20z m20 -130 c0 -5 -16 -10 -35 -10 -19 0 -35 5
-35 10 0 6 16 10 35 10 19 0 35 -4 35 -10z"/>
<path d="M2906 3659 c-21 -17 -26 -29 -26 -65 0 -64 25 -86 93 -82 44 3 52 6
55 24 3 18 -2 21 -39 20 -25 -1 -44 4 -46 12 -3 8 10 12 46 12 48 0 51 2 51
25 0 35 -42 75 -78 75 -16 0 -41 -9 -56 -21z m72 -37 c2 -7 -6 -12 -17 -12
-21 0 -27 11 -14 24 9 9 26 2 31 -12z"/>
<path d="M3104 3668 c-45 -21 -57 -89 -23 -132 18 -23 27 -27 68 -24 42 3 46
5 49 31 3 26 2 27 -24 17 -37 -14 -59 7 -50 45 6 23 11 27 36 23 23 -4 31 0
36 15 11 34 -44 49 -92 25z"/>
<path d="M3264 3668 c-45 -21 -57 -89 -23 -132 18 -23 27 -27 68 -24 42 3 46
5 49 31 3 26 2 27 -24 17 -37 -14 -59 7 -50 45 6 23 11 27 36 23 23 -4 31 0
36 15 11 34 -44 49 -92 25z"/>
<path d="M3418 3673 c-20 -5 -22 -12 -9 -32 6 -9 18 -11 34 -7 14 3 28 2 32
-3 3 -6 -10 -13 -29 -16 -49 -10 -72 -38 -60 -73 7 -21 17 -28 42 -30 18 -2
39 2 47 8 9 8 15 8 20 0 3 -5 15 -10 26 -10 17 0 19 7 19 69 0 61 -3 72 -22
85 -21 15 -63 19 -100 9z m62 -103 c0 -12 -28 -25 -36 -17 -9 9 6 27 22 27 8
0 14 -5 14 -10z"/>
<path d="M8730 3480 c0 -18 7 -20 75 -20 68 0 75 2 75 20 0 18 -7 20 -75 20
-68 0 -75 -2 -75 -20z"/>
<path d="M9632 3483 c3 -15 16 -18 81 -21 72 -3 77 -1 77 18 0 18 -6 20 -81
20 -71 0 -80 -2 -77 -17z"/>
<path d="M802 3473 c3 -15 15 -18 78 -18 63 0 75 3 78 18 3 15 -6 17 -78 17
-72 0 -81 -2 -78 -17z"/>
<path d="M1712 3473 c3 -15 15 -18 78 -18 63 0 75 3 78 18 3 15 -6 17 -78 17
-72 0 -81 -2 -78 -17z"/>
<path d="M2520 3470 c0 -18 7 -20 75 -20 68 0 75 2 75 20 0 18 -7 20 -75 20
-68 0 -75 -2 -75 -20z"/>
<path d="M1242 3013 c3 -93 4 -98 26 -101 25 -4 30 13 7 22 -12 4 -15 24 -15
91 0 52 -4 85 -10 85 -7 0 -10 -35 -8 -97z"/>
<path d="M1172 3088 c6 -18 28 -21 28 -4 0 9 -7 16 -16 16 -9 0 -14 -5 -12
-12z"/>
<path d="M1677 3093 c-4 -3 -7 -14 -7 -24 0 -9 -6 -20 -12 -23 -10 -5 -10 -7
0 -12 7 -4 12 -27 12 -65 0 -33 4 -59 10 -59 6 0 10 25 10 56 0 47 3 57 20 61
11 3 20 9 20 14 0 5 -9 9 -20 9 -11 0 -20 5 -20 11 0 6 9 13 20 16 11 3 20 9
20 14 0 10 -43 12 -53 2z"/>
<path d="M2160 3005 c0 -78 3 -95 15 -95 11 0 15 13 15 54 0 46 3 56 20 61 33
11 50 -12 50 -66 0 -27 5 -49 10 -49 6 0 10 26 10 59 0 68 -14 87 -60 77 -28
-5 -30 -3 -30 24 0 20 -5 30 -15 30 -12 0 -15 -17 -15 -95z"/>
<path d="M1040 3000 c0 -53 4 -90 10 -90 6 0 10 18 10 40 l0 40 40 0 c22 0 40
5 40 10 0 6 -18 10 -40 10 -38 0 -40 2 -40 30 0 29 2 30 45 30 25 0 45 5 45
10 0 6 -25 10 -55 10 l-55 0 0 -90z"/>
<path d="M2070 3071 c0 -11 -6 -22 -12 -24 -10 -4 -10 -7 -1 -14 6 -5 13 -33
15 -63 3 -52 5 -55 31 -58 15 -2 27 1 27 7 0 6 -7 11 -15 11 -11 0 -15 12 -15
50 0 38 4 50 15 50 8 0 15 5 15 10 0 6 -7 10 -15 10 -8 0 -15 9 -15 20 0 11
-7 20 -15 20 -8 0 -15 -9 -15 -19z"/>
<path d="M8627 3063 c-9 -8 -9 -156 -1 -177 7 -17 54 -22 54 -6 0 6 -7 10 -15
10 -12 0 -15 17 -15 90 0 83 -5 101 -23 83z"/>
<path d="M9420 2970 c0 -60 4 -100 10 -100 6 0 10 20 10 44 0 45 18 76 45 76
21 0 35 -33 35 -79 0 -23 5 -41 10 -41 13 0 13 96 0 121 -12 22 -59 26 -78 7
-9 -9 -12 -3 -12 30 0 23 -4 42 -10 42 -6 0 -10 -40 -10 -100z"/>
<path d="M8560 3045 c0 -8 7 -15 15 -15 8 0 15 7 15 15 0 8 -7 15 -15 15 -8 0
-15 -7 -15 -15z"/>
<path d="M8937 3053 c-4 -3 -7 -14 -7 -24 0 -9 -6 -19 -12 -22 -10 -4 -10 -7
0 -18 6 -7 12 -37 12 -66 0 -29 5 -53 10 -53 6 0 10 26 10 59 0 54 2 60 23 64
l22 4 -22 8 c-13 4 -23 11 -23 15 0 4 10 15 23 23 l22 16 -26 0 c-14 1 -29 -2
-32 -6z"/>
<path d="M1177 3043 c-4 -3 -7 -35 -7 -70 0 -49 3 -63 15 -63 12 0 15 14 15
70 0 64 -6 81 -23 63z"/>
<path d="M1336 3034 c-24 -23 -29 -59 -14 -91 10 -22 21 -29 49 -31 23 -2 40
2 49 13 16 20 5 32 -14 16 -20 -17 -60 -10 -64 12 -3 14 4 17 47 17 44 0 51 3
51 20 0 48 -71 78 -104 44z m72 -26 c3 -15 -4 -18 -32 -18 -38 0 -44 8 -24 28
17 17 52 11 56 -10z"/>
<path d="M1476 3034 c-27 -26 -15 -51 30 -63 34 -9 46 -41 16 -41 -11 0 -25 7
-32 15 -17 20 -32 8 -20 -16 13 -23 71 -26 90 -4 19 22 2 54 -33 63 -35 9 -51
42 -20 42 11 0 24 -5 31 -12 17 -17 28 -2 12 17 -16 20 -54 19 -74 -1z"/>
<path d="M1767 3032 c-9 -10 -17 -34 -17 -54 0 -84 106 -94 126 -11 15 57 -70
108 -109 65z m71 -14 c7 -7 12 -24 12 -38 0 -51 -52 -69 -72 -25 -22 49 25 98
60 63z"/>
<path d="M1910 2980 c0 -40 4 -70 10 -70 6 0 10 18 10 39 0 52 8 71 31 71 10
0 19 7 19 15 0 18 -21 20 -38 3 -9 -9 -12 -9 -12 0 0 7 -4 12 -10 12 -6 0 -10
-30 -10 -70z"/>
<path d="M2336 3034 c-24 -23 -29 -59 -14 -91 10 -22 21 -29 49 -31 23 -2 40
2 49 13 16 20 5 32 -14 16 -20 -17 -60 -10 -64 12 -3 14 4 17 47 17 44 0 51 3
51 20 0 48 -71 78 -104 44z m72 -26 c3 -15 -4 -18 -32 -18 -38 0 -44 8 -24 28
17 17 52 11 56 -10z"/>
<path d="M2530 2955 c0 -57 4 -95 10 -95 6 0 10 17 10 37 0 29 3 34 12 25 36
-36 98 2 98 60 0 51 -65 89 -98 56 -9 -9 -12 -9 -12 0 0 7 -4 12 -10 12 -6 0
-10 -38 -10 -95z m88 63 c7 -7 12 -24 12 -38 0 -51 -53 -70 -70 -25 -19 50 24
97 58 63z"/>
<path d="M2690 2980 c0 -40 4 -70 10 -70 6 0 10 18 10 39 0 52 8 71 31 71 10
0 19 7 19 15 0 18 -21 20 -38 3 -9 -9 -12 -9 -12 0 0 7 -4 12 -10 12 -6 0 -10
-30 -10 -70z"/>
<path d="M2795 3030 c-39 -43 -10 -120 45 -120 36 0 60 29 60 72 0 62 -66 92
-105 48z m77 -25 c22 -49 -25 -98 -60 -63 -7 7 -12 24 -12 38 0 51 52 69 72
25z"/>
<path d="M2930 2955 c0 -78 3 -95 15 -95 11 0 15 11 15 37 0 29 3 34 12 25 17
-17 54 -15 72 4 22 22 21 87 -2 107 -22 20 -53 22 -70 5 -9 -9 -12 -9 -12 0 0
7 -7 12 -15 12 -12 0 -15 -17 -15 -95z m102 50 c22 -49 -25 -98 -60 -63 -7 7
-12 24 -12 38 0 51 52 69 72 25z"/>
<path d="M3110 3030 c-24 -24 -26 -67 -4 -98 18 -26 75 -30 94 -7 16 20 5 32
-14 16 -20 -17 -60 -10 -64 12 -3 14 4 17 47 17 53 0 59 6 40 43 -23 43 -66
50 -99 17z m70 -4 c0 -2 3 -11 6 -20 5 -13 -1 -16 -30 -16 -34 0 -47 15 -29
33 7 8 53 10 53 3z"/>
<path d="M3247 3043 c-4 -3 -7 -35 -7 -70 0 -49 3 -63 15 -63 11 0 15 12 15
50 0 45 3 52 27 61 19 7 23 13 15 21 -8 8 -15 8 -27 -2 -10 -8 -15 -9 -15 -1
0 12 -13 15 -23 4z"/>
<path d="M8420 2960 c0 -73 3 -90 15 -90 11 0 15 11 15 40 l0 40 40 0 c22 0
40 5 40 10 0 6 -18 10 -40 10 -38 0 -40 2 -40 30 0 29 2 30 45 30 25 0 45 5
45 10 0 6 -27 10 -60 10 l-60 0 0 -90z"/>
<path d="M9330 3034 c0 -9 -8 -23 -17 -30 -17 -12 -17 -13 -1 -14 14 0 18 -11
20 -57 3 -55 4 -58 31 -61 15 -2 27 1 27 7 0 6 -7 11 -15 11 -11 0 -15 12 -15
50 0 38 4 50 15 50 8 0 15 5 15 10 0 6 -7 10 -15 10 -8 0 -15 9 -15 20 0 11
-7 20 -15 20 -8 0 -15 -7 -15 -16z"/>
<path d="M8560 2940 c0 -56 3 -70 15 -70 12 0 15 14 15 70 0 56 -3 70 -15 70
-12 0 -15 -14 -15 -70z"/>
<path d="M8716 2988 c-36 -51 -8 -118 48 -118 19 0 39 7 46 15 18 22 4 31 -24
15 -28 -15 -56 -8 -56 15 0 11 12 15 51 15 51 0 51 0 45 28 -13 53 -81 72
-110 30z m72 -10 c20 -20 14 -28 -23 -28 -22 0 -35 5 -35 13 0 28 36 37 58 15z"/>
<path d="M9027 2992 c-9 -10 -17 -34 -17 -54 0 -84 106 -94 126 -11 15 57 -70
108 -109 65z m71 -14 c7 -7 12 -24 12 -38 0 -48 -49 -69 -70 -31 -14 27 -13
47 6 65 19 19 36 20 52 4z"/>
<path d="M9165 3001 c-3 -2 -5 -33 -5 -68 0 -48 3 -63 14 -63 11 0 16 15 18
53 3 45 6 52 26 55 37 6 26 30 -13 29 -20 -1 -38 -3 -40 -6z"/>
<path d="M9586 2988 c-36 -51 -8 -118 48 -118 19 0 39 7 46 15 18 22 4 31 -24
15 -28 -15 -56 -8 -56 15 0 11 12 15 51 15 51 0 51 0 45 28 -13 53 -81 72
-110 30z m72 -10 c20 -20 14 -28 -23 -28 -22 0 -35 5 -35 13 0 28 36 37 58 15z"/>
<path d="M9787 3003 c-4 -3 -7 -46 -7 -95 0 -72 3 -88 15 -88 11 0 15 11 15
37 0 29 3 34 12 25 16 -16 63 -15 76 1 48 60 -8 157 -70 118 -11 -7 -18 -7
-18 -1 0 11 -13 13 -23 3z m97 -46 c12 -34 -1 -61 -32 -65 -31 -5 -50 38 -34
74 16 34 53 29 66 -9z"/>
<path d="M9950 2940 c0 -40 4 -70 10 -70 6 0 10 18 10 39 0 52 8 71 31 71 10
0 19 7 19 15 0 18 -21 20 -38 3 -9 -9 -12 -9 -12 0 0 7 -4 12 -10 12 -6 0 -10
-30 -10 -70z"/>
<path d="M10056 2994 c-44 -44 -25 -117 33 -122 62 -6 94 61 55 116 -18 26
-65 30 -88 6z m60 -12 c18 -12 24 -41 14 -67 -17 -45 -70 -26 -70 25 0 40 28
61 56 42z"/>
<path d="M10190 2915 c0 -78 3 -95 15 -95 11 0 15 11 15 37 0 29 3 34 12 25
17 -17 54 -15 72 4 22 22 21 87 -2 107 -22 20 -53 22 -70 5 -9 -9 -12 -9 -12
0 0 7 -7 12 -15 12 -12 0 -15 -17 -15 -95z m94 59 c19 -18 20 -38 6 -65 -21
-38 -70 -17 -70 31 0 46 34 64 64 34z"/>
<path d="M10367 2992 c-23 -25 -22 -85 1 -105 26 -24 79 -22 92 3 8 16 8 20
-4 20 -8 0 -18 -4 -21 -10 -11 -17 -44 -11 -55 10 -10 19 -8 20 40 20 46 0 50
2 50 23 0 50 -70 76 -103 39z m71 -14 c21 -21 13 -28 -28 -28 -38 0 -40 2 -30
20 12 22 40 26 58 8z"/>
<path d="M10500 2939 c0 -55 3 -69 15 -69 11 0 15 12 15 51 0 42 3 52 20 56
33 9 23 29 -15 30 l-35 1 0 -69z"/>
<path d="M980 2725 c0 -8 7 -15 15 -15 8 0 15 7 15 15 0 8 -7 15 -15 15 -8 0
-15 -7 -15 -15z"/>
<path d="M1970 2725 c0 -8 7 -15 15 -15 8 0 15 7 15 15 0 8 -7 15 -15 15 -8 0
-15 -7 -15 -15z"/>
<path d="M2583 2728 c-22 -34 -31 -58 -22 -58 5 0 9 -27 9 -60 0 -47 3 -60 15
-60 12 0 15 13 15 60 0 47 3 60 15 60 8 0 15 5 15 10 0 6 -7 10 -15 10 -8 0
-15 7 -15 15 0 8 7 15 15 15 8 0 15 5 15 10 0 14 -37 12 -47 -2z"/>
<path d="M3255 2729 c-34 -19 -45 -41 -45 -89 0 -36 5 -52 23 -68 25 -24 76
-29 95 -10 9 9 12 9 12 0 0 -7 5 -12 10 -12 6 0 10 23 10 50 l0 50 -35 0 c-19
0 -35 -4 -35 -10 0 -5 11 -10 25 -10 29 0 33 -21 9 -44 -22 -23 -60 -20 -78 6
-35 49 -8 118 45 118 17 0 32 -6 35 -15 6 -16 34 -21 34 -7 0 31 -73 59 -105
41z"/>
<path d="M1220 2710 c0 -11 -7 -20 -15 -20 -8 0 -15 -4 -15 -10 0 -5 7 -10 15
-10 10 0 15 -15 17 -57 3 -51 6 -58 26 -61 12 -2 22 1 22 7 0 6 -7 11 -15 11
-11 0 -15 12 -15 50 0 38 4 50 15 50 8 0 15 5 15 10 0 6 -7 10 -15 10 -8 0
-15 9 -15 20 0 11 -4 20 -10 20 -5 0 -10 -9 -10 -20z"/>
<path d="M1880 2711 c0 -11 -6 -22 -12 -24 -10 -4 -10 -7 -1 -14 6 -5 13 -33
15 -63 3 -52 5 -55 31 -58 15 -2 27 1 27 7 0 6 -7 11 -15 11 -11 0 -15 12 -15
50 0 38 4 50 15 50 8 0 15 5 15 10 0 6 -7 10 -15 10 -8 0 -15 9 -15 20 0 11
-7 20 -15 20 -8 0 -15 -9 -15 -19z"/>
<path d="M2710 2720 c0 -5 11 -10 25 -10 25 0 25 -1 25 -80 0 -64 3 -80 15
-80 12 0 15 16 15 80 0 79 0 80 25 80 14 0 25 5 25 10 0 6 -28 10 -65 10 -37
0 -65 -4 -65 -10z"/>
<path d="M2870 2640 c0 -53 4 -90 10 -90 6 0 10 16 10 35 0 47 27 47 58 0 12
-19 27 -35 32 -35 15 0 12 9 -10 40 l-21 29 21 11 c23 12 28 68 8 88 -7 7 -34
12 -60 12 l-48 0 0 -90z m84 64 c39 -15 6 -64 -43 -64 -17 0 -21 6 -21 35 0
30 3 35 24 35 13 0 31 -3 40 -6z"/>
<path d="M3030 2640 c0 -105 18 -123 22 -23 l3 67 44 -67 c60 -93 71 -89 71
23 0 53 -4 90 -10 90 -6 0 -10 -31 -10 -72 l0 -73 -48 72 c-26 40 -53 73 -59
73 -10 0 -13 -25 -13 -90z"/>
<path d="M8035 2691 c-7 -12 12 -24 25 -16 11 7 4 25 -10 25 -5 0 -11 -4 -15
-9z"/>
<path d="M9025 2691 c-7 -12 12 -24 25 -16 11 7 4 25 -10 25 -5 0 -11 -4 -15
-9z"/>
<path d="M9637 2693 c-4 -3 -7 -14 -7 -24 0 -9 -6 -19 -12 -22 -10 -4 -10 -7
0 -18 6 -7 12 -37 12 -66 0 -29 5 -53 10 -53 6 0 10 26 10 59 0 54 2 60 23 64
l22 4 -22 8 c-13 4 -23 11 -23 15 0 4 10 15 23 23 l22 16 -26 0 c-14 1 -29 -2
-32 -6z"/>
<path d="M10305 2688 c-33 -19 -44 -41 -45 -84 0 -27 7 -50 21 -67 18 -24 26
-27 80 -25 l60 2 -3 45 c-3 45 -4 46 -35 46 -36 0 -46 -18 -13 -23 23 -4 24
-6 10 -33 -13 -24 -62 -26 -81 -3 -7 9 -14 33 -14 54 0 21 7 45 14 54 19 23
63 20 86 -6 14 -17 20 -19 23 -8 6 16 -42 60 -66 60 -9 0 -26 -6 -37 -12z"/>
<path d="M10510 2684 c0 -9 5 -14 12 -12 18 6 21 28 4 28 -9 0 -16 -7 -16 -16z"/>
<path d="M980 2620 c0 -56 3 -70 15 -70 12 0 15 14 15 70 0 56 -3 70 -15 70
-12 0 -15 -14 -15 -70z"/>
<path d="M1050 2620 c0 -40 4 -70 10 -70 6 0 10 22 10 49 0 54 17 77 50 66 17
-5 20 -15 20 -61 0 -41 4 -54 15 -54 23 0 21 102 -3 123 -22 20 -53 22 -70 5
-9 -9 -12 -9 -12 0 0 7 -4 12 -10 12 -6 0 -10 -30 -10 -70z"/>
<path d="M1320 2670 c-24 -24 -26 -67 -4 -98 18 -26 75 -30 94 -7 16 20 5 32
-14 16 -20 -17 -60 -10 -64 12 -3 14 4 17 47 17 53 0 59 6 40 43 -23 43 -66
50 -99 17z m70 -4 c0 -2 3 -11 6 -20 5 -13 -1 -16 -30 -16 -34 0 -47 15 -29
33 7 8 53 10 53 3z"/>
<path d="M1465 2667 c-42 -59 24 -154 73 -105 9 9 12 7 12 -10 0 -13 -7 -25
-15 -27 -51 -16 -50 -16 -35 -25 19 -12 51 -3 68 18 7 9 12 46 12 91 l0 76
-50 2 c-41 2 -52 -2 -65 -20z m74 -11 c17 -20 10 -67 -11 -79 -23 -15 -48 8
-48 42 0 45 35 66 59 37z"/>
<path d="M1620 2620 c0 -40 4 -70 10 -70 6 0 10 18 10 39 0 52 8 71 31 71 10
0 19 7 19 15 0 18 -21 20 -38 3 -9 -9 -12 -9 -12 0 0 7 -4 12 -10 12 -6 0 -10
-30 -10 -70z"/>
<path d="M1716 2668 c-34 -48 -8 -118 43 -118 15 0 32 5 39 12 9 9 12 9 12 0
0 -7 5 -12 10 -12 6 0 10 30 10 70 0 40 -4 70 -10 70 -5 0 -10 -5 -10 -10 0
-7 -6 -7 -19 0 -31 16 -59 12 -75 -12z m70 -6 c34 -23 20 -92 -20 -92 -13 0
-27 7 -30 16 -20 53 12 102 50 76z"/>
<path d="M1970 2620 c0 -56 3 -70 15 -70 12 0 15 14 15 70 0 56 -3 70 -15 70
-12 0 -15 -14 -15 -70z"/>
<path d="M2050 2670 c-43 -43 -14 -120 45 -120 24 0 39 7 49 22 34 49 5 118
-49 118 -14 0 -34 -9 -45 -20z m68 -12 c7 -7 12 -24 12 -38 0 -52 -53 -70 -71
-24 -17 46 28 93 59 62z"/>
<path d="M2190 2620 c0 -40 4 -70 10 -70 6 0 10 18 10 41 0 50 15 79 40 79 25
0 40 -29 40 -79 0 -23 5 -41 10 -41 17 0 12 107 -6 124 -18 19 -55 21 -72 4
-9 -9 -12 -9 -12 0 0 7 -4 12 -10 12 -6 0 -10 -30 -10 -70z"/>
<path d="M2434 2682 c-38 -25 -40 -103 -4 -122 51 -27 100 4 100 62 0 49 -59
85 -96 60z m68 -37 c22 -49 -25 -98 -60 -63 -7 7 -12 24 -12 38 0 51 52 69 72
25z"/>
<path d="M8270 2671 c0 -11 -6 -22 -12 -24 -10 -4 -10 -7 -1 -14 6 -5 13 -33
15 -63 3 -52 5 -55 31 -58 15 -2 27 1 27 7 0 6 -7 11 -15 11 -11 0 -15 12 -15
50 0 38 4 50 15 50 8 0 15 5 15 10 0 6 -7 10 -15 10 -8 0 -15 9 -15 20 0 11
-7 20 -15 20 -8 0 -15 -9 -15 -19z"/>
<path d="M8940 2670 c0 -11 -7 -20 -15 -20 -8 0 -15 -4 -15 -10 0 -5 7 -10 15
-10 12 0 15 -13 15 -55 0 -58 10 -72 47 -62 16 4 15 6 -4 12 -20 6 -23 14 -23
55 0 42 3 49 23 53 l22 4 -22 8 c-13 4 -23 16 -23 26 0 11 -4 19 -10 19 -5 0
-10 -9 -10 -20z"/>
<path d="M9760 2680 c0 -5 14 -10 30 -10 l30 0 0 -80 c0 -47 4 -80 10 -80 6 0
10 33 10 80 0 78 1 80 24 80 14 0 28 5 31 10 4 6 -20 10 -64 10 -41 0 -71 -4
-71 -10z"/>
<path d="M9920 2600 c0 -73 3 -90 15 -90 10 0 15 11 15 35 0 24 5 35 14 35 8
0 24 -16 36 -35 12 -19 28 -35 37 -35 12 0 11 6 -6 34 -21 33 -21 33 -1 51 11
10 20 28 20 41 0 37 -26 54 -81 54 l-49 0 0 -90z m84 64 c9 -3 16 -16 16 -29
0 -23 -17 -35 -51 -35 -15 0 -19 7 -19 35 0 36 15 44 54 29z"/>
<path d="M10080 2600 c0 -72 3 -90 15 -90 10 0 15 16 17 63 l3 62 43 -62 c61
-89 72 -85 72 27 0 73 -3 90 -15 90 -12 0 -15 -14 -15 -67 l0 -68 -45 68 c-63
93 -75 90 -75 -23z"/>
<path d="M10740 2671 c0 -11 -6 -22 -12 -25 -10 -5 -10 -7 0 -12 7 -3 12 -24
12 -49 0 -24 3 -50 6 -59 7 -17 54 -22 54 -6 0 6 -7 10 -15 10 -11 0 -15 12
-15 50 0 38 4 50 15 50 8 0 15 5 15 10 0 6 -7 10 -15 10 -8 0 -15 9 -15 20 0
11 -7 20 -15 20 -8 0 -15 -9 -15 -19z"/>
<path d="M8040 2580 c0 -40 4 -70 10 -70 6 0 10 30 10 70 0 40 -4 70 -10 70
-6 0 -10 -30 -10 -70z"/>
<path d="M8100 2578 c0 -54 3 -68 15 -68 11 0 15 13 15 54 0 46 3 56 20 61 33
11 50 -12 50 -66 0 -39 3 -49 16 -49 14 0 16 8 11 56 -8 73 -18 84 -78 81
l-49 -2 0 -67z"/>
<path d="M8378 2633 c-33 -37 -30 -91 6 -115 21 -14 63 -8 81 12 20 22 6 27
-25 8 -15 -9 -25 -10 -37 -2 -35 22 -26 34 26 34 47 0 51 2 51 23 0 49 -70 76
-102 40z m70 -25 c3 -15 -4 -18 -32 -18 -38 0 -44 8 -24 28 17 17 52 11 56
-10z"/>
<path d="M8526 2634 c-25 -25 -30 -61 -12 -90 22 -32 41 -39 72 -26 13 7 24 8
24 3 0 -25 -15 -41 -37 -41 -15 0 -23 -5 -21 -12 7 -21 33 -20 58 0 21 17 25
31 28 92 3 46 0 76 -7 83 -9 9 -14 9 -20 -2 -6 -9 -11 -10 -15 -2 -10 16 -52
13 -70 -5z m74 -25 c22 -41 -7 -87 -45 -73 -37 15 -24 94 15 94 11 0 24 -9 30
-21z"/>
<path d="M8670 2578 c0 -54 3 -68 15 -68 12 0 15 13 15 55 0 48 2 55 20 55 11
0 20 6 20 14 0 10 -11 14 -35 13 l-35 -1 0 -68z"/>
<path d="M8777 2632 c-19 -21 -22 -73 -7 -103 12 -22 59 -26 78 -7 9 9 12 9
12 0 0 -7 7 -12 15 -12 12 0 15 14 15 70 0 56 -3 70 -15 70 -8 0 -15 -5 -15
-12 0 -9 -3 -9 -12 0 -18 18 -53 15 -71 -6z m71 -14 c7 -7 12 -24 12 -38 0
-51 -52 -69 -72 -25 -22 49 25 98 60 63z"/>
<path d="M9030 2580 c0 -40 4 -70 10 -70 6 0 10 30 10 70 0 40 -4 70 -10 70
-6 0 -10 -30 -10 -70z"/>
<path d="M9106 2634 c-44 -44 -25 -117 33 -122 62 -6 94 61 55 116 -18 26 -65
30 -88 6z m60 -12 c18 -12 24 -41 14 -67 -17 -45 -70 -26 -70 25 0 40 28 61
56 42z"/>
<path d="M9240 2580 c0 -54 3 -70 14 -70 11 0 16 15 18 51 6 95 68 93 68 -2 0
-37 4 -49 15 -49 21 0 20 88 -1 118 -17 24 -53 29 -72 10 -9 -9 -12 -9 -12 0
0 7 -7 12 -15 12 -12 0 -15 -14 -15 -70z"/>
<path d="M9478 2633 c-33 -37 -30 -91 6 -115 20 -14 63 -8 79 10 23 25 22 85
-1 105 -24 22 -65 22 -84 0z m74 -28 c22 -49 -25 -98 -60 -63 -26 26 -6 88 29
88 11 0 24 -11 31 -25z"/>
<path d="M10510 2581 c0 -57 3 -71 15 -71 13 0 15 12 13 67 -2 42 -8 68 -15
71 -10 3 -13 -15 -13 -67z"/>
<path d="M10570 2580 c0 -54 3 -70 14 -70 11 0 16 15 18 51 6 95 68 93 68 -2
0 -37 4 -49 15 -49 21 0 20 88 -1 118 -17 24 -53 29 -72 10 -9 -9 -12 -9 -12
0 0 7 -7 12 -15 12 -12 0 -15 -14 -15 -70z"/>
<path d="M10847 2632 c-9 -10 -17 -34 -17 -54 0 -84 106 -94 126 -11 15 57
-70 108 -109 65z m71 -14 c7 -7 12 -24 12 -38 0 -48 -49 -69 -70 -31 -14 27
-13 47 6 65 19 19 36 20 52 4z"/>
<path d="M1440 2350 c0 -37 -2 -40 -19 -30 -29 15 -49 12 -71 -10 -40 -40 -14
-120 39 -120 15 0 32 5 39 12 9 9 12 9 12 0 0 -7 5 -12 10 -12 6 0 10 40 10
100 0 60 -4 100 -10 100 -5 0 -10 -18 -10 -40z m-24 -48 c18 -12 26 -50 14
-72 -21 -39 -70 -18 -70 30 0 40 28 61 56 42z"/>
<path d="M1560 2285 c0 -57 4 -95 10 -95 6 0 10 15 10 33 l1 32 29 -34 c15
-18 33 -32 39 -30 7 3 -1 19 -18 39 l-29 35 31 33 c38 39 16 44 -25 5 l-28
-27 0 52 c0 29 -4 52 -10 52 -6 0 -10 -38 -10 -95z"/>
<path d="M2300 2285 c0 -78 3 -95 15 -95 10 0 15 10 15 28 l1 27 25 -28 c34
-39 53 -29 20 10 -32 38 -32 44 -1 73 14 13 23 26 20 28 -3 3 -19 -7 -35 -23
l-30 -29 0 52 c0 40 -4 52 -15 52 -12 0 -15 -17 -15 -95z"/>
<path d="M2492 2368 c6 -18 28 -21 28 -4 0 9 -7 16 -16 16 -9 0 -14 -5 -12
-12z"/>
<path d="M2730 2354 c0 -9 -8 -23 -17 -30 -17 -12 -17 -13 -1 -14 14 0 18 -11
20 -57 3 -55 4 -58 31 -61 31 -4 37 13 7 21 -16 4 -20 14 -20 47 0 33 4 43 20
47 11 3 20 9 20 14 0 5 -9 9 -20 9 -13 0 -20 7 -20 20 0 11 -4 20 -10 20 -5 0
-10 -7 -10 -16z"/>
<path d="M3030 2365 c0 -3 12 -23 26 -45 l26 -39 -32 -45 c-23 -34 -27 -46
-16 -46 8 0 26 16 40 36 l24 36 24 -36 c13 -20 29 -36 37 -36 11 0 11 4 -1 23
-8 12 -21 32 -29 45 -15 23 -15 22 29 90 12 18 12 22 1 22 -8 0 -24 -16 -37
-36 l-24 -36 -24 36 c-21 31 -44 47 -44 31z"/>
<path d="M1036 2314 c-41 -40 -24 -116 27 -122 16 -2 35 2 43 9 10 8 14 8 14
0 0 -6 5 -11 10 -11 6 0 10 30 10 70 0 40 -4 70 -10 70 -5 0 -10 -5 -10 -12 0
-9 -3 -9 -12 0 -17 17 -54 15 -72 -4z m76 -29 c22 -49 -25 -98 -60 -63 -15 15
-15 61 0 76 20 20 48 14 60 -13z"/>
<path d="M1180 2258 c0 -54 3 -68 15 -68 11 0 15 13 15 54 0 46 3 56 20 61 33
11 50 -12 50 -66 0 -27 5 -49 10 -49 15 0 12 116 -3 128 -7 6 -34 10 -60 9
l-47 -2 0 -67z"/>
<path d="M1705 2310 c-39 -43 -10 -120 45 -120 15 0 35 9 45 20 20 22 6 27
-25 8 -15 -9 -25 -10 -37 -2 -35 22 -26 34 26 34 42 0 51 3 51 18 0 55 -69 82
-105 42z m75 -20 c10 -18 8 -20 -30 -20 -41 0 -49 7 -28 28 18 18 46 14 58 -8z"/>
<path d="M1857 2312 c-23 -25 -22 -85 1 -105 32 -29 102 -13 102 24 0 14 -16
11 -30 -6 -34 -40 -85 9 -62 60 13 29 38 32 64 8 25 -22 36 -8 13 17 -23 25
-67 26 -88 2z"/>
<path d="M2005 2310 c-39 -43 -10 -120 45 -120 24 0 60 26 60 43 0 14 -28 7
-34 -8 -7 -18 -37 -20 -54 -3 -7 7 -12 24 -12 38 0 14 5 31 12 38 17 17 47 15
54 -3 6 -16 34 -21 34 -7 0 17 -37 42 -62 42 -14 0 -33 -9 -43 -20z"/>
<path d="M2156 2314 c-41 -40 -24 -116 27 -122 16 -2 35 2 43 9 10 8 14 8 14
0 0 -6 5 -11 10 -11 6 0 10 30 10 70 0 40 -4 70 -10 70 -5 0 -10 -5 -10 -12 0
-9 -3 -9 -12 0 -17 17 -54 15 -72 -4z m76 -29 c22 -49 -25 -98 -60 -63 -7 7
-12 24 -12 38 0 51 52 69 72 25z"/>
<path d="M2497 2323 c-4 -3 -7 -35 -7 -70 0 -49 3 -63 15 -63 12 0 15 14 15
70 0 64 -6 81 -23 63z"/>
<path d="M2560 2260 c0 -40 4 -70 10 -70 6 0 10 18 10 41 0 50 15 79 40 79 25
0 40 -29 40 -79 0 -23 5 -41 10 -41 17 0 12 107 -6 124 -18 19 -55 21 -72 4
-9 -9 -12 -9 -12 0 0 7 -4 12 -10 12 -6 0 -10 -30 -10 -70z"/>
<path d="M2844 2322 c-38 -25 -40 -103 -4 -122 51 -27 100 4 100 62 0 49 -59
85 -96 60z m68 -37 c22 -49 -25 -98 -60 -63 -7 7 -12 24 -12 38 0 51 52 69 72
25z"/>
<path d="M9059 2287 l30 -44 -30 -44 c-19 -29 -25 -45 -17 -48 7 -2 18 5 25
15 40 61 38 60 62 20 13 -20 30 -36 38 -36 14 0 14 3 1 23 -8 12 -21 32 -29
45 -15 23 -15 22 29 90 13 19 13 22 -1 22 -8 0 -25 -16 -37 -35 -12 -19 -23
-35 -25 -35 -2 0 -13 16 -25 35 -12 19 -28 35 -36 35 -11 0 -7 -12 15 -43z"/>
<path d="M9360 2240 c0 -73 3 -90 15 -90 11 0 15 11 15 40 l0 40 45 0 45 0 0
-40 c0 -22 5 -40 10 -40 6 0 10 37 10 90 0 53 -4 90 -10 90 -5 0 -10 -18 -10
-40 l0 -40 -45 0 -45 0 0 40 c0 29 -4 40 -15 40 -12 0 -15 -17 -15 -90z"/>
<path d="M9540 2240 l0 -90 55 0 c30 0 55 5 55 10 0 6 -20 10 -45 10 -43 0
-45 1 -45 30 0 28 2 30 40 30 51 0 53 18 3 22 -33 3 -38 7 -41 31 -3 26 -2 27
42 27 25 0 46 5 46 10 0 6 -25 10 -55 10 l-55 0 0 -90z"/>
<path d="M9680 2240 l0 -90 60 0 c33 0 60 4 60 10 0 6 -20 10 -45 10 -43 0
-45 1 -45 30 0 28 2 30 40 30 22 0 40 5 40 10 0 6 -18 10 -40 10 -38 0 -40 2
-40 30 0 29 2 30 45 30 25 0 45 5 45 10 0 6 -27 10 -60 10 l-60 0 0 -90z"/>
<path d="M9830 2240 c0 -73 3 -90 15 -90 10 0 15 10 15 30 0 26 4 30 28 30 40
0 72 26 72 59 0 40 -28 61 -83 61 l-47 0 0 -90z m84 64 c26 -10 21 -60 -6 -68
-43 -11 -48 -7 -48 34 0 41 13 50 54 34z"/>
<path d="M3210 2270 c0 -5 23 -10 50 -10 28 0 50 5 50 10 0 6 -22 10 -50 10
-27 0 -50 -4 -50 -10z"/>
<path d="M9220 2230 c0 -5 23 -10 50 -10 28 0 50 5 50 10 0 6 -22 10 -50 10
-27 0 -50 -4 -50 -10z"/>
<path d="M1880 1920 c0 -53 4 -90 10 -90 6 0 10 18 10 40 l0 40 45 0 45 0 0
-40 c0 -29 4 -40 15 -40 12 0 15 17 15 90 0 73 -3 90 -15 90 -11 0 -15 -11
-15 -40 l0 -40 -45 0 -45 0 0 40 c0 22 -4 40 -10 40 -6 0 -10 -37 -10 -90z"/>
<path d="M2050 1920 l0 -90 60 0 c33 0 60 4 60 10 0 6 -20 10 -45 10 -43 0
-45 1 -45 30 0 28 2 30 40 30 22 0 40 5 40 10 0 6 -18 10 -40 10 -38 0 -40 2
-40 30 0 29 2 30 45 30 25 0 45 5 45 10 0 6 -27 10 -60 10 l-60 0 0 -90z"/>
<path d="M2200 1920 l0 -90 55 0 c30 0 55 5 55 10 0 6 -18 10 -40 10 -38 0
-40 2 -40 30 0 28 3 30 35 30 19 0 35 5 35 10 0 6 -16 10 -35 10 -32 0 -35 2
-35 30 0 28 2 30 40 30 22 0 40 5 40 10 0 6 -25 10 -55 10 l-55 0 0 -90z"/>
<path d="M2350 1920 c0 -53 4 -90 10 -90 6 0 10 14 10 30 0 27 3 30 33 30 42
0 67 26 67 68 0 38 -22 52 -79 52 l-41 0 0 -90z m88 58 c29 -29 2 -68 -47 -68
-18 0 -21 6 -21 40 0 37 2 40 28 40 15 0 33 -5 40 -12z"/>
</g>
</svg>
